<svg
  version="1.0"
  xmlns="http://www.w3.org/2000/svg"
  xmlns:xlink="http://www.w3.org/1999/xlink"
  width="100%"
  height="100%"
  viewBox="100 85 200.000000 80.000000"
  preserveAspectRatio="xMidYMid meet"
  color-interpolation-filters="sRGB"
  style="margin: auto"
>
  <rect
    data-v-0dd9719b=""
    x="0"
    y="0"
    width="100%"
    height="100%"
    fill="#141414"
    fill-opacity="0"
    class="background"
  ></rect>
  <g
    data-v-0dd9719b=""
    fill="#fff"
    class="icon-text-wrapper icon-svg-group iconsvg"
    transform="translate(52.80999755859375,95.90090751647949)"
  >
    <g transform="translate(67,6.024091720581055)">
      <g data-gra="path-name" fill-rule="" class="tp-name iconsvg-namesvg">
        <g transform="scale(1)">
          <g>
            <path
              d="M33.41-17.75C33.41-11.25 29.12-7.93 22.88-7.93 16.45-7.93 12.8-11.25 12.8-17.75L12.8-45.5 3.9-45.5 3.9-16.45C3.9-4.81 12.74 0.65 22.95 0.65 33.48 0.65 42.05-4.81 42.05-16.45L42.05-45.5 33.41-45.5ZM49.92-45.5L49.92-36.98 65.84-36.98C73.58-36.98 79.37-34 79.37-22.75 79.37-11.44 73.64-8.58 65.91-8.58L49.92-8.58 49.92 0 68.7 0C82.55 0 88.59-9.88 88.59-22.75 88.59-35.69 82.55-45.5 68.7-45.5ZM116.87-45.5L105.75-45.5 89.44 0 98.93 0 111.02-36.08 111.67-36.08 124.6 0 134.75 0ZM155.35-20.09L141.12-45.5 131.04-45.5 146.58-18.2 146.58 0 155.35 0ZM158.28-24.51L171.28-45.5 161.33-45.5 153.59-32.18Z"
              transform="translate(-3.9000000953674316, 45.5)"
            ></path>
          </g>
        </g>
      </g>
    </g>
  </g>
  <defs v-gra="od"></defs>
</svg>
